<mxfile host="65bd71144e">
    <diagram id="RqxQKwqZHQ5zn3kkhT_E" name="Page-1">
        <mxGraphModel dx="1361" dy="-158" grid="1" gridSize="10" guides="1" tooltips="1" connect="1" arrows="1" fold="1" page="1" pageScale="1" pageWidth="827" pageHeight="1169" math="0" shadow="0">
            <root>
                <mxCell id="0"/>
                <mxCell id="1" parent="0"/>
                <mxCell id="2" value="&lt;b&gt;FLOWCHART KEY&lt;/b&gt;" style="text;html=1;strokeColor=none;fillColor=none;align=center;verticalAlign=middle;whiteSpace=wrap;rounded=0;" vertex="1" parent="1">
                    <mxGeometry x="2010" y="1400" width="160" height="40" as="geometry"/>
                </mxCell>
                <mxCell id="3" value="&lt;b&gt;Event&lt;/b&gt;" style="shape=hexagon;perimeter=hexagonPerimeter2;whiteSpace=wrap;html=1;fixedSize=1;fillColor=#dae8fc;strokeColor=#6c8ebf;fontColor=#000000;" vertex="1" parent="1">
                    <mxGeometry x="2010" y="1640" width="160" height="40" as="geometry"/>
                </mxCell>
                <mxCell id="4" value="&lt;b&gt;Input OR Output&lt;/b&gt;" style="shape=parallelogram;perimeter=parallelogramPerimeter;whiteSpace=wrap;html=1;fixedSize=1;fillColor=#ffe6cc;strokeColor=#d79b00;fontColor=#000000;" vertex="1" parent="1">
                    <mxGeometry x="2010" y="1720" width="160" height="40" as="geometry"/>
                </mxCell>
                <mxCell id="5" value="Start / End" style="ellipse;whiteSpace=wrap;html=1;fontSize=17;fillColor=#e51400;strokeColor=#B20000;fontColor=#ffffff;fontStyle=1" vertex="1" parent="1">
                    <mxGeometry x="2010" y="1480" width="160" height="40" as="geometry"/>
                </mxCell>
                <mxCell id="6" value="" style="group" vertex="1" connectable="0" parent="1">
                    <mxGeometry x="1990" y="1800" width="205.08999999999992" height="45" as="geometry"/>
                </mxCell>
                <mxCell id="7" value="&lt;b&gt;Decision&lt;/b&gt;" style="rhombus;whiteSpace=wrap;html=1;fillColor=#fff2cc;strokeColor=#d6b656;fontColor=#000000;" vertex="1" parent="6">
                    <mxGeometry x="42.11981566820282" width="117.97235023041475" height="40" as="geometry"/>
                </mxCell>
                <mxCell id="8" value="TRUE" style="ellipse;whiteSpace=wrap;html=1;aspect=fixed;fontColor=#ffffff;fillColor=#a20025;strokeColor=#6F0000;fontStyle=1" vertex="1" parent="6">
                    <mxGeometry x="160.08999999999992" width="45" height="45" as="geometry"/>
                </mxCell>
                <mxCell id="9" value="FALSE" style="ellipse;whiteSpace=wrap;html=1;aspect=fixed;fontColor=#ffffff;fillColor=#a20025;strokeColor=#6F0000;fontStyle=1" vertex="1" parent="6">
                    <mxGeometry width="42.12" height="42.12" as="geometry"/>
                </mxCell>
                <mxCell id="10" value="&lt;b&gt;Generic step&lt;/b&gt;" style="rounded=0;whiteSpace=wrap;html=1;fillColor=#e1d5e7;strokeColor=#9673a6;fontColor=#000000;" vertex="1" parent="1">
                    <mxGeometry x="2010" y="1560" width="160" height="40" as="geometry"/>
                </mxCell>
                <mxCell id="11" value="subroutine / subprogram" style="shape=process;whiteSpace=wrap;html=1;backgroundOutline=1;fontSize=13;fillColor=#647687;fontColor=#ffffff;fontStyle=1;strokeColor=#FFFFFF;" vertex="1" parent="1">
                    <mxGeometry x="2010" y="1880" width="160" height="40" as="geometry"/>
                </mxCell>
                <mxCell id="14" style="edgeStyle=none;html=1;" edge="1" parent="1" source="12" target="13">
                    <mxGeometry relative="1" as="geometry"/>
                </mxCell>
                <mxCell id="45" style="edgeStyle=orthogonalEdgeStyle;html=1;" edge="1" parent="1" source="12" target="43">
                    <mxGeometry relative="1" as="geometry">
                        <Array as="points">
                            <mxPoint x="1161" y="1400"/>
                        </Array>
                    </mxGeometry>
                </mxCell>
                <mxCell id="12" value="Start" style="ellipse;whiteSpace=wrap;html=1;fontSize=17;fillColor=#e51400;strokeColor=#B20000;fontColor=#ffffff;fontStyle=1" vertex="1" parent="1">
                    <mxGeometry x="800" y="1320" width="160" height="40" as="geometry"/>
                </mxCell>
                <mxCell id="19" style="edgeStyle=none;html=1;" edge="1" parent="1" source="13" target="16">
                    <mxGeometry relative="1" as="geometry"/>
                </mxCell>
                <mxCell id="13" value="&lt;b&gt;Click on START&lt;/b&gt;" style="shape=hexagon;perimeter=hexagonPerimeter2;whiteSpace=wrap;html=1;fixedSize=1;fillColor=#dae8fc;strokeColor=#6c8ebf;fontColor=#000000;" vertex="1" parent="1">
                    <mxGeometry x="800" y="1440" width="160" height="40" as="geometry"/>
                </mxCell>
                <mxCell id="16" value="&lt;b&gt;Are we already playing?&lt;/b&gt;" style="rhombus;whiteSpace=wrap;html=1;fillColor=#fff2cc;strokeColor=#d6b656;fontColor=#000000;" vertex="1" parent="1">
                    <mxGeometry x="780" y="1560" width="200" height="40" as="geometry"/>
                </mxCell>
                <mxCell id="17" value="TRUE" style="ellipse;whiteSpace=wrap;html=1;aspect=fixed;fontColor=#ffffff;fillColor=#a20025;strokeColor=#6F0000;fontStyle=1" vertex="1" parent="1">
                    <mxGeometry x="979.9969228143741" y="1560" width="45" height="45" as="geometry"/>
                </mxCell>
                <mxCell id="48" style="edgeStyle=orthogonalEdgeStyle;html=1;entryX=0.5;entryY=0;entryDx=0;entryDy=0;" edge="1" parent="1" source="18" target="46">
                    <mxGeometry relative="1" as="geometry"/>
                </mxCell>
                <mxCell id="18" value="FALSE" style="ellipse;whiteSpace=wrap;html=1;aspect=fixed;fontColor=#ffffff;fillColor=#a20025;strokeColor=#6F0000;fontStyle=1" vertex="1" parent="1">
                    <mxGeometry x="740" y="1560" width="42.12" height="42.12" as="geometry"/>
                </mxCell>
                <mxCell id="49" style="edgeStyle=orthogonalEdgeStyle;html=1;" edge="1" parent="1" source="20" target="46">
                    <mxGeometry relative="1" as="geometry">
                        <Array as="points">
                            <mxPoint x="1161" y="1660"/>
                        </Array>
                    </mxGeometry>
                </mxCell>
                <mxCell id="20" value="&lt;b&gt;Reload page&lt;/b&gt;" style="rounded=0;whiteSpace=wrap;html=1;fillColor=#e1d5e7;strokeColor=#9673a6;fontColor=#000000;" vertex="1" parent="1">
                    <mxGeometry x="1081" y="1640" width="160" height="40" as="geometry"/>
                </mxCell>
                <mxCell id="34" style="edgeStyle=orthogonalEdgeStyle;html=1;" edge="1" parent="1" source="22" target="31">
                    <mxGeometry relative="1" as="geometry"/>
                </mxCell>
                <mxCell id="22" value="&lt;b&gt;Reduce time by one second&lt;/b&gt;" style="rounded=0;whiteSpace=wrap;html=1;fillColor=#e1d5e7;strokeColor=#9673a6;fontColor=#000000;" vertex="1" parent="1">
                    <mxGeometry x="681.06" y="1760" width="160" height="40" as="geometry"/>
                </mxCell>
                <mxCell id="23" value="&lt;b&gt;Change button text &lt;br&gt;to reset&lt;/b&gt;" style="rounded=0;whiteSpace=wrap;html=1;fillColor=#e1d5e7;strokeColor=#9673a6;fontColor=#000000;" vertex="1" parent="1">
                    <mxGeometry x="922.5" y="1760" width="160" height="40" as="geometry"/>
                </mxCell>
                <mxCell id="55" style="edgeStyle=orthogonalEdgeStyle;html=1;entryX=0;entryY=0.5;entryDx=0;entryDy=0;" edge="1" parent="1" source="24" target="54">
                    <mxGeometry relative="1" as="geometry"/>
                </mxCell>
                <mxCell id="24" value="&lt;b&gt;Generate new questions &amp;amp; Answers&lt;/b&gt;" style="rounded=0;whiteSpace=wrap;html=1;fillColor=#e1d5e7;strokeColor=#9673a6;fontColor=#000000;" vertex="1" parent="1">
                    <mxGeometry x="1161" y="1760" width="160" height="40" as="geometry"/>
                </mxCell>
                <mxCell id="25" value="&lt;b&gt;Show countdown box&lt;/b&gt;" style="rounded=0;whiteSpace=wrap;html=1;fillColor=#e1d5e7;strokeColor=#9673a6;fontColor=#000000;" vertex="1" parent="1">
                    <mxGeometry x="450" y="1760" width="160" height="40" as="geometry"/>
                </mxCell>
                <mxCell id="30" value="" style="group" vertex="1" connectable="0" parent="1">
                    <mxGeometry x="658.5200000000001" y="1840" width="205.08999999999992" height="45" as="geometry"/>
                </mxCell>
                <mxCell id="31" value="&lt;b&gt;Time left?&lt;/b&gt;" style="rhombus;whiteSpace=wrap;html=1;fillColor=#fff2cc;strokeColor=#d6b656;fontColor=#000000;" vertex="1" parent="30">
                    <mxGeometry x="42.11981566820282" width="117.97235023041475" height="40" as="geometry"/>
                </mxCell>
                <mxCell id="32" value="FALSE" style="ellipse;whiteSpace=wrap;html=1;aspect=fixed;fontColor=#ffffff;fillColor=#a20025;strokeColor=#6F0000;fontStyle=1" vertex="1" parent="30">
                    <mxGeometry x="160.08999999999992" width="45" height="45" as="geometry"/>
                </mxCell>
                <mxCell id="33" value="TRUE" style="ellipse;whiteSpace=wrap;html=1;aspect=fixed;fontColor=#ffffff;fillColor=#a20025;strokeColor=#6F0000;fontStyle=1" vertex="1" parent="30">
                    <mxGeometry width="42.12" height="42.12" as="geometry"/>
                </mxCell>
                <mxCell id="35" style="edgeStyle=orthogonalEdgeStyle;html=1;entryX=0;entryY=0.5;entryDx=0;entryDy=0;" edge="1" parent="1" source="33" target="22">
                    <mxGeometry relative="1" as="geometry">
                        <Array as="points">
                            <mxPoint x="650" y="1861"/>
                            <mxPoint x="650" y="1780"/>
                        </Array>
                    </mxGeometry>
                </mxCell>
                <mxCell id="41" style="edgeStyle=orthogonalEdgeStyle;html=1;" edge="1" parent="1" source="36" target="40">
                    <mxGeometry relative="1" as="geometry"/>
                </mxCell>
                <mxCell id="36" value="&lt;b&gt;Show &quot;Game Over&quot; message&lt;/b&gt;" style="rounded=0;whiteSpace=wrap;html=1;fillColor=#e1d5e7;strokeColor=#9673a6;fontColor=#000000;" vertex="1" parent="1">
                    <mxGeometry x="931" y="1842.5" width="160" height="40" as="geometry"/>
                </mxCell>
                <mxCell id="37" style="edgeStyle=orthogonalEdgeStyle;html=1;" edge="1" parent="1" source="32" target="36">
                    <mxGeometry relative="1" as="geometry"/>
                </mxCell>
                <mxCell id="42" style="edgeStyle=orthogonalEdgeStyle;html=1;entryX=0.5;entryY=1;entryDx=0;entryDy=0;" edge="1" parent="1" source="38" target="40">
                    <mxGeometry relative="1" as="geometry"/>
                </mxCell>
                <mxCell id="38" value="&lt;b&gt;Change button text to &quot;Start Game&quot;&lt;/b&gt;" style="rounded=0;whiteSpace=wrap;html=1;fillColor=#e1d5e7;strokeColor=#9673a6;fontColor=#000000;" vertex="1" parent="1">
                    <mxGeometry x="932.5" y="1920" width="160" height="40" as="geometry"/>
                </mxCell>
                <mxCell id="39" style="edgeStyle=orthogonalEdgeStyle;html=1;entryX=0;entryY=0.5;entryDx=0;entryDy=0;" edge="1" parent="1" source="32" target="38">
                    <mxGeometry relative="1" as="geometry"/>
                </mxCell>
                <mxCell id="40" value="End" style="ellipse;whiteSpace=wrap;html=1;fontSize=17;fillColor=#e51400;strokeColor=#B20000;fontColor=#ffffff;fontStyle=1" vertex="1" parent="1">
                    <mxGeometry x="1171" y="1842.5" width="160" height="40" as="geometry"/>
                </mxCell>
                <mxCell id="44" style="edgeStyle=orthogonalEdgeStyle;html=1;" edge="1" parent="1" source="43" target="20">
                    <mxGeometry relative="1" as="geometry"/>
                </mxCell>
                <mxCell id="43" value="&lt;b&gt;Click on Reset&lt;/b&gt;" style="shape=hexagon;perimeter=hexagonPerimeter2;whiteSpace=wrap;html=1;fixedSize=1;fillColor=#dae8fc;strokeColor=#6c8ebf;fontColor=#000000;" vertex="1" parent="1">
                    <mxGeometry x="1081" y="1440" width="160" height="40" as="geometry"/>
                </mxCell>
                <mxCell id="50" style="edgeStyle=orthogonalEdgeStyle;html=1;entryX=0.5;entryY=0;entryDx=0;entryDy=0;" edge="1" parent="1" source="46" target="22">
                    <mxGeometry relative="1" as="geometry"/>
                </mxCell>
                <mxCell id="51" style="edgeStyle=orthogonalEdgeStyle;html=1;entryX=0.5;entryY=0;entryDx=0;entryDy=0;" edge="1" parent="1" source="46" target="25">
                    <mxGeometry relative="1" as="geometry">
                        <Array as="points">
                            <mxPoint x="761" y="1720"/>
                            <mxPoint x="530" y="1720"/>
                        </Array>
                    </mxGeometry>
                </mxCell>
                <mxCell id="53" style="edgeStyle=orthogonalEdgeStyle;html=1;entryX=0.5;entryY=0;entryDx=0;entryDy=0;" edge="1" parent="1" source="46" target="23">
                    <mxGeometry relative="1" as="geometry">
                        <Array as="points">
                            <mxPoint x="761" y="1720"/>
                            <mxPoint x="1002" y="1720"/>
                        </Array>
                    </mxGeometry>
                </mxCell>
                <mxCell id="46" value="&lt;b&gt;Start new game&lt;/b&gt;" style="rounded=0;whiteSpace=wrap;html=1;fillColor=#e1d5e7;strokeColor=#9673a6;fontColor=#000000;" vertex="1" parent="1">
                    <mxGeometry x="681.06" y="1640" width="160" height="40" as="geometry"/>
                </mxCell>
                <mxCell id="60" style="edgeStyle=orthogonalEdgeStyle;html=1;" edge="1" parent="1" source="54" target="57">
                    <mxGeometry relative="1" as="geometry"/>
                </mxCell>
                <mxCell id="54" value="&lt;b&gt;Click on answer box&lt;/b&gt;" style="shape=hexagon;perimeter=hexagonPerimeter2;whiteSpace=wrap;html=1;fixedSize=1;fillColor=#dae8fc;strokeColor=#6c8ebf;fontColor=#000000;" vertex="1" parent="1">
                    <mxGeometry x="1400" y="1760" width="160" height="40" as="geometry"/>
                </mxCell>
                <mxCell id="57" value="&lt;b&gt;Are we already playing?&lt;/b&gt;" style="rhombus;whiteSpace=wrap;html=1;fillColor=#fff2cc;strokeColor=#d6b656;fontColor=#000000;" vertex="1" parent="1">
                    <mxGeometry x="1380" y="1920" width="200" height="40" as="geometry"/>
                </mxCell>
                <mxCell id="67" style="edgeStyle=orthogonalEdgeStyle;html=1;entryX=0.5;entryY=0;entryDx=0;entryDy=0;exitX=0.5;exitY=1;exitDx=0;exitDy=0;" edge="1" parent="1" source="58" target="64">
                    <mxGeometry relative="1" as="geometry"/>
                </mxCell>
                <mxCell id="58" value="TRUE" style="ellipse;whiteSpace=wrap;html=1;aspect=fixed;fontColor=#ffffff;fillColor=#a20025;strokeColor=#6F0000;fontStyle=1" vertex="1" parent="1">
                    <mxGeometry x="1579.996922814374" y="1920" width="45" height="45" as="geometry"/>
                </mxCell>
                <mxCell id="62" style="edgeStyle=orthogonalEdgeStyle;html=1;" edge="1" parent="1" source="59" target="61">
                    <mxGeometry relative="1" as="geometry"/>
                </mxCell>
                <mxCell id="59" value="FALSE" style="ellipse;whiteSpace=wrap;html=1;aspect=fixed;fontColor=#ffffff;fillColor=#a20025;strokeColor=#6F0000;fontStyle=1" vertex="1" parent="1">
                    <mxGeometry x="1340" y="1920" width="42.12" height="42.12" as="geometry"/>
                </mxCell>
                <mxCell id="61" value="&lt;b&gt;NO ACTION&lt;/b&gt;" style="rounded=0;whiteSpace=wrap;html=1;fillColor=#e1d5e7;strokeColor=#9673a6;fontColor=#000000;" vertex="1" parent="1">
                    <mxGeometry x="1281.06" y="2000" width="160" height="40" as="geometry"/>
                </mxCell>
                <mxCell id="63" value="" style="group" vertex="1" connectable="0" parent="1">
                    <mxGeometry x="1499.95" y="2080" width="205.08999999999992" height="45" as="geometry"/>
                </mxCell>
                <mxCell id="64" value="&lt;b&gt;Correct&lt;/b&gt;" style="rhombus;whiteSpace=wrap;html=1;fillColor=#fff2cc;strokeColor=#d6b656;fontColor=#000000;" vertex="1" parent="63">
                    <mxGeometry x="42.11981566820282" width="117.97235023041475" height="40" as="geometry"/>
                </mxCell>
                <mxCell id="65" value="TRUE" style="ellipse;whiteSpace=wrap;html=1;aspect=fixed;fontColor=#ffffff;fillColor=#a20025;strokeColor=#6F0000;fontStyle=1" vertex="1" parent="63">
                    <mxGeometry x="160.08999999999992" width="45" height="45" as="geometry"/>
                </mxCell>
                <mxCell id="66" value="FALSE" style="ellipse;whiteSpace=wrap;html=1;aspect=fixed;fontColor=#ffffff;fillColor=#a20025;strokeColor=#6F0000;fontStyle=1" vertex="1" parent="63">
                    <mxGeometry width="42.12" height="42.12" as="geometry"/>
                </mxCell>
                <mxCell id="68" value="&lt;b&gt;Show try again box for one second&lt;/b&gt;" style="rounded=0;whiteSpace=wrap;html=1;fillColor=#e1d5e7;strokeColor=#9673a6;fontColor=#000000;" vertex="1" parent="1">
                    <mxGeometry x="1280" y="2080" width="160" height="40" as="geometry"/>
                </mxCell>
                <mxCell id="69" style="edgeStyle=orthogonalEdgeStyle;html=1;entryX=1;entryY=0.5;entryDx=0;entryDy=0;" edge="1" parent="1" source="66" target="68">
                    <mxGeometry relative="1" as="geometry"/>
                </mxCell>
                <mxCell id="70" value="&lt;b&gt;Increase score by 1 point&lt;/b&gt;" style="rounded=0;whiteSpace=wrap;html=1;fillColor=#e1d5e7;strokeColor=#9673a6;fontColor=#000000;" vertex="1" parent="1">
                    <mxGeometry x="1362.54" y="2200" width="160" height="40" as="geometry"/>
                </mxCell>
                <mxCell id="71" value="&lt;b&gt;Show correct answer box for one second&lt;/b&gt;" style="rounded=0;whiteSpace=wrap;html=1;fillColor=#e1d5e7;strokeColor=#9673a6;fontColor=#000000;" vertex="1" parent="1">
                    <mxGeometry x="1602.54" y="2200" width="160" height="40" as="geometry"/>
                </mxCell>
                <mxCell id="72" value="&lt;b&gt;Generate new question &amp;amp; answers&lt;/b&gt;" style="rounded=0;whiteSpace=wrap;html=1;fillColor=#e1d5e7;strokeColor=#9673a6;fontColor=#000000;" vertex="1" parent="1">
                    <mxGeometry x="1842.54" y="2200" width="160" height="40" as="geometry"/>
                </mxCell>
                <mxCell id="73" style="edgeStyle=orthogonalEdgeStyle;html=1;entryX=0.5;entryY=0;entryDx=0;entryDy=0;" edge="1" parent="1" source="65" target="71">
                    <mxGeometry relative="1" as="geometry"/>
                </mxCell>
                <mxCell id="74" style="edgeStyle=orthogonalEdgeStyle;html=1;entryX=0.5;entryY=0;entryDx=0;entryDy=0;" edge="1" parent="1" source="65" target="70">
                    <mxGeometry relative="1" as="geometry">
                        <Array as="points">
                            <mxPoint x="1682" y="2160"/>
                            <mxPoint x="1442" y="2160"/>
                        </Array>
                    </mxGeometry>
                </mxCell>
                <mxCell id="75" style="edgeStyle=orthogonalEdgeStyle;html=1;entryX=0.5;entryY=0;entryDx=0;entryDy=0;" edge="1" parent="1" source="65" target="72">
                    <mxGeometry relative="1" as="geometry">
                        <Array as="points">
                            <mxPoint x="1682" y="2160"/>
                            <mxPoint x="1922" y="2160"/>
                        </Array>
                    </mxGeometry>
                </mxCell>
            </root>
        </mxGraphModel>
    </diagram>
</mxfile>